<svg width="17" height="17" viewBox="0 0 17 17" fill="none" xmlns="http://www.w3.org/2000/svg">
<path fill-rule="evenodd" clip-rule="evenodd" d="M15.9265 14.866C16.5128 14.866 16.9883 14.3906 16.9883 13.8042C16.9883 13.6335 16.9477 13.4717 16.8763 13.3291L14.8648 9.30596V6.37048C14.8648 2.8513 12.0125 -0.00136006 8.49426 -0.00136006C4.9766 -0.00136006 2.12428 2.8513 2.12428 6.37048V9.30596L0.112773 13.3291C0.0411049 13.4717 0.000767946 13.6335 0.000767946 13.8042C0.000767946 14.3906 0.476034 14.866 1.06226 14.866H6.37077C6.37077 16.0388 7.32128 16.9897 8.49426 16.9897C9.66726 16.9897 10.6183 16.0388 10.6183 14.866H15.9265ZM4.10264 10.0681H4.09107L2.51836 12.8995H14.472L12.899 10.0681H12.8975V6.61128H12.8857C12.8935 6.50403 12.8975 6.39572 12.8975 6.28648C12.8975 3.85766 10.9286 1.88886 8.49992 1.88886C6.07096 1.88886 4.10264 3.85766 4.10264 6.28648C4.10264 6.39572 4.10662 6.50403 4.11445 6.61128H4.10264V10.0681Z" fill="#AAAAAA"/>
</svg>
