<svg width="344" height="385" viewBox="0 0 344 385" fill="none" xmlns="http://www.w3.org/2000/svg">
<g filter="url(#filter0_d_0_3412)">
<path fill-rule="evenodd" clip-rule="evenodd" d="M191.906 122.844C234.633 122.844 269.271 157.497 269.271 200.244C269.271 242.991 234.633 277.644 191.906 277.644C149.179 277.644 114.542 242.991 114.542 200.244C114.542 157.497 149.179 122.844 191.906 122.844Z" fill="#E650B5"/>
<path fill-rule="evenodd" clip-rule="evenodd" d="M191.906 122.844C234.633 122.844 269.271 157.497 269.271 200.244C269.271 242.991 234.633 277.644 191.906 277.644C149.179 277.644 114.542 242.991 114.542 200.244C114.542 157.497 149.179 122.844 191.906 122.844Z" fill="url(#paint0_linear_0_3412)"/>
</g>
<path fill-rule="evenodd" clip-rule="evenodd" d="M158.17 173.862H157.655C156.827 173.862 156.155 174.534 156.155 175.362V225.791V226.306C156.155 227.135 156.827 227.806 157.655 227.806H158.17H227.338C228.167 227.806 228.838 227.135 228.838 226.306V225.791C228.838 224.962 228.167 224.291 227.338 224.291H159.67V175.362C159.67 174.534 158.998 173.862 158.17 173.862ZM204.336 205.728H223.564C224.117 205.728 224.564 206.176 224.564 206.728V208.581C224.564 209.134 224.117 209.581 223.564 209.581H204.336C203.784 209.581 203.336 209.134 203.336 208.581V206.728C203.336 206.176 203.784 205.728 204.336 205.728ZM223.564 213.406H204.336C203.784 213.406 203.336 213.854 203.336 214.406V216.259C203.336 216.812 203.784 217.259 204.336 217.259H223.564C224.117 217.259 224.564 216.812 224.564 216.259V214.406C224.564 213.854 224.117 213.406 223.564 213.406ZM220.226 176.703C226.222 180.148 228.277 187.776 224.815 193.742C221.353 199.707 213.686 201.751 207.69 198.307C201.694 194.863 199.64 187.234 203.102 181.269C206.564 175.303 214.231 173.259 220.226 176.703ZM222.913 187.688C222.963 185.118 221.892 182.59 219.897 180.835L217.092 185.669L221.879 186.946C222.321 187.063 222.68 187.335 222.913 187.688ZM222.542 190.052C222.345 190.704 222.07 191.345 221.713 191.96C219.241 196.221 213.765 197.681 209.481 195.22C205.198 192.761 203.731 187.312 206.204 183.051C208.369 179.318 212.84 177.735 216.795 179.053L213.303 185.071C213.181 185.282 213.107 185.507 213.077 185.733C212.937 185.914 212.829 186.126 212.766 186.36C212.51 187.311 213.077 188.288 214.032 188.542L220.952 190.387C221.527 190.54 222.111 190.397 222.542 190.052ZM190.868 178.869H192.72C193.272 178.869 193.72 179.316 193.72 179.869V216.259C193.72 216.812 193.272 217.259 192.72 217.259H190.868C190.316 217.259 189.868 216.812 189.868 216.259V179.869C189.868 179.316 190.316 178.869 190.868 178.869ZM184.988 186.547H183.136C182.583 186.547 182.136 186.994 182.136 187.547V216.259C182.136 216.812 182.583 217.259 183.136 217.259H184.988C185.54 217.259 185.988 216.812 185.988 216.259V187.547C185.988 186.994 185.54 186.547 184.988 186.547ZM175.431 198.05H177.283C177.836 198.05 178.284 198.498 178.284 199.05V216.259C178.284 216.812 177.836 217.259 177.283 217.259H175.431C174.879 217.259 174.431 216.812 174.431 216.259V199.05C174.431 198.498 174.879 198.05 175.431 198.05ZM169.551 194.225H167.699C167.147 194.225 166.699 194.673 166.699 195.225V216.259C166.699 216.812 167.147 217.259 167.699 217.259H169.551C170.104 217.259 170.551 216.812 170.551 216.259V195.225C170.551 194.673 170.104 194.225 169.551 194.225Z" fill="white" fill-opacity="0.9"/>
<g filter="url(#filter1_d_0_3412)">
<path fill-rule="evenodd" clip-rule="evenodd" d="M62.9612 53.6563C86.2619 53.6563 105.151 72.5569 105.151 95.872C105.151 119.187 86.2619 138.088 62.9612 138.088C39.6605 138.088 20.7714 119.187 20.7714 95.872C20.7714 72.5569 39.6605 53.6563 62.9612 53.6563Z" fill="#DA4CD3"/>
<path fill-rule="evenodd" clip-rule="evenodd" d="M62.9612 53.6563C86.2619 53.6563 105.151 72.5569 105.151 95.872C105.151 119.187 86.2619 138.088 62.9612 138.088C39.6605 138.088 20.7714 119.187 20.7714 95.872C20.7714 72.5569 39.6605 53.6563 62.9612 53.6563Z" fill="url(#paint1_linear_0_3412)"/>
</g>
<path fill-rule="evenodd" clip-rule="evenodd" d="M67.8954 81.2585L49.1936 86.8085C48.548 87 48.1652 87.7347 48.3381 88.4499C48.3474 88.4883 48.3581 88.5258 48.3702 88.5625C48.3232 88.7326 48.2981 88.9117 48.2981 89.0967V107.372C48.2981 108.477 49.1936 109.372 50.298 109.372H74.4434C75.5478 109.372 76.4433 108.477 76.4433 107.372V103.419C77.7795 103.116 78.777 101.922 78.777 100.494V95.9467C78.777 94.519 77.7795 93.3242 76.4433 93.0212V89.0967C76.4433 87.9921 75.5478 87.0967 74.4434 87.0967H57.5729L68.5222 83.8476C69.1673 83.6565 69.5508 82.9214 69.3777 82.2067C69.2045 81.4916 68.5412 81.0674 67.8954 81.2585ZM74.1097 89.4312V92.9469H67.7184C66.0617 92.9469 64.7186 94.29 64.7186 95.9467V100.494C64.7186 102.151 66.0617 103.494 67.7184 103.494H74.1097V107.009H50.66V89.4312H74.1097ZM75.4432 95.3094H68.0521C67.5 95.3094 67.0522 95.7571 67.0522 96.3093V100.159C67.0522 100.712 67.5 101.159 68.0521 101.159H75.4432C75.9955 101.159 76.4433 100.712 76.4433 100.159V96.3093C76.4433 95.7571 75.9955 95.3094 75.4432 95.3094ZM69.9903 96.4626C70.9609 96.4626 71.7478 97.2494 71.7478 98.2203C71.7478 99.1912 70.9609 99.9779 69.9903 99.9779C69.0198 99.9779 68.2332 99.1912 68.2332 98.2203C68.2332 97.2494 69.0198 96.4626 69.9903 96.4626Z" fill="white" fill-opacity="0.9"/>
<g filter="url(#filter2_d_0_3412)">
<path fill-rule="evenodd" clip-rule="evenodd" d="M203.041 4.99993C219.229 4.99993 232.353 18.1269 232.353 34.3205C232.353 50.5136 219.229 63.6406 203.041 63.6406C186.852 63.6406 173.729 50.5136 173.729 34.3205C173.729 18.1269 186.852 4.99993 203.041 4.99993Z" fill="#D44CDE"/>
<path fill-rule="evenodd" clip-rule="evenodd" d="M203.041 4.99993C219.229 4.99993 232.353 18.1269 232.353 34.3205C232.353 50.5136 219.229 63.6406 203.041 63.6406C186.852 63.6406 173.729 50.5136 173.729 34.3205C173.729 18.1269 186.852 4.99993 203.041 4.99993Z" fill="url(#paint2_linear_0_3412)"/>
</g>
<path fill-rule="evenodd" clip-rule="evenodd" d="M213.599 41.3515C213.599 38.8964 211.471 36.8823 208.765 36.6847C208.295 35.9153 207.712 35.2146 207.038 34.6024C207.115 34.4392 207.185 34.2728 207.25 34.1035C207.583 34.2344 207.947 34.3062 208.327 34.3062C209.95 34.3062 211.265 32.9966 211.265 31.3811C211.265 29.7656 209.95 28.4564 208.327 28.4564C207.947 28.4564 207.583 28.5283 207.25 28.659C206.966 27.9175 206.57 27.2316 206.083 26.6222C206.764 26.3014 207.524 26.122 208.327 26.122C211.238 26.122 213.599 28.483 213.599 31.3954C213.599 32.8814 212.984 34.2238 211.996 35.1824C214.343 36.383 215.932 38.6956 215.932 41.3515L215.932 41.3541L215.932 41.3658H215.932C215.925 42.0038 215.405 42.5189 214.766 42.5189C214.126 42.5189 213.607 42.0038 213.599 41.3658H213.599L213.599 41.3515ZM196.448 35.1823C195.459 34.2238 194.845 32.8813 194.845 31.3954C194.845 28.483 197.205 26.122 200.117 26.122C203.028 26.122 205.388 28.483 205.388 31.3954C205.388 32.8765 204.778 34.215 203.795 35.1729C206.153 36.3708 207.75 38.6886 207.75 41.3515C207.75 41.3524 207.75 41.3532 207.75 41.3541L207.75 41.3658H207.75C207.743 42.0038 207.217 42.5189 206.569 42.5189C205.922 42.5189 205.396 42.0038 205.389 41.3658H205.388L205.388 41.3515C205.388 38.7655 203.028 36.6688 200.117 36.6688C197.205 36.6688 194.845 38.7655 194.845 41.3515L194.845 41.3658H194.845C194.837 42.0038 194.317 42.5189 193.678 42.5189C193.038 42.5189 192.518 42.0038 192.511 41.3658H192.511L192.511 41.3541L192.511 41.3515C192.511 38.6956 194.1 36.3829 196.448 35.1823ZM200.117 28.4564C201.739 28.4564 203.055 29.7656 203.055 31.3811C203.055 32.9966 201.739 34.3062 200.117 34.3062C198.494 34.3062 197.178 32.9966 197.178 31.3811C197.178 29.7656 198.494 28.4564 200.117 28.4564Z" fill="#EEEEEE" fill-opacity="0.75"/>
<g filter="url(#filter3_d_0_3412)">
<path fill-rule="evenodd" clip-rule="evenodd" d="M259.317 64.7938C275.498 64.7938 288.615 77.9208 288.615 94.1139C288.615 110.307 275.498 123.434 259.317 123.434C243.136 123.434 230.019 110.307 230.019 94.1139C230.019 77.9208 243.136 64.7938 259.317 64.7938Z" fill="#DB4CD1"/>
<path fill-rule="evenodd" clip-rule="evenodd" d="M259.317 64.7938C275.498 64.7938 288.615 77.9208 288.615 94.1139C288.615 110.307 275.498 123.434 259.317 123.434C243.136 123.434 230.019 110.307 230.019 94.1139C230.019 77.9208 243.136 64.7938 259.317 64.7938Z" fill="url(#paint3_linear_0_3412)"/>
</g>
<path fill-rule="evenodd" clip-rule="evenodd" d="M271.042 94.1282C271.042 87.6508 265.793 82.4001 259.317 82.4001C252.842 82.4001 247.592 87.6508 247.592 94.1282C247.592 100.606 252.842 105.856 259.317 105.856C265.793 105.856 271.042 100.606 271.042 94.1282ZM268.708 94.1139C268.708 88.9338 264.504 84.7346 259.317 84.7346C254.131 84.7346 249.926 88.9338 249.926 94.1139C249.926 99.2945 254.131 103.494 259.317 103.494C264.504 103.494 268.708 99.2945 268.708 94.1139ZM259.317 87.0967C263.197 87.0967 266.344 90.242 266.347 94.1228H264.603L264.603 94.1139C264.603 91.2015 262.237 88.8405 259.317 88.8405C256.398 88.8405 254.031 91.2015 254.031 94.1139L254.031 94.1228H252.288C252.291 90.242 255.437 87.0967 259.317 87.0967ZM261.63 93.4C261.779 92.9631 261.449 92.5154 260.893 92.3975C260.338 92.2811 259.766 92.54 259.617 92.9766L258.179 97.1908C258.029 97.6273 258.36 98.0758 258.916 98.1929C259.471 98.3097 260.043 98.0504 260.192 97.6142L261.63 93.4Z" fill="#FAFAFA" fill-opacity="0.75"/>
<g filter="url(#filter4_d_0_3412)">
<path fill-rule="evenodd" clip-rule="evenodd" d="M89.3351 262.991C105.524 262.991 118.647 276.112 118.647 292.297C118.647 308.482 105.524 321.603 89.3351 321.603C73.1463 321.603 60.0228 308.482 60.0228 292.297C60.0228 276.112 73.1463 262.991 89.3351 262.991Z" fill="#EE5397"/>
<path fill-rule="evenodd" clip-rule="evenodd" d="M89.3351 262.991C105.524 262.991 118.647 276.112 118.647 292.297C118.647 308.482 105.524 321.603 89.3351 321.603C73.1463 321.603 60.0228 308.482 60.0228 292.297C60.0228 276.112 73.1463 262.991 89.3351 262.991Z" fill="url(#paint4_linear_0_3412)"/>
</g>
<path fill-rule="evenodd" clip-rule="evenodd" d="M93.1976 282.903H79.6242C78.5196 282.903 77.6243 283.799 77.6243 284.903V293.621L77.6122 293.62V297.903L77.6936 297.989C77.6489 298.103 77.6243 298.227 77.6243 298.358C77.6243 298.894 78.0397 299.328 78.5522 299.328C78.6739 299.328 78.7901 299.303 78.8966 299.259L78.965 299.331L82.3251 295.785H93.1976C94.302 295.785 95.1975 294.889 95.1975 293.784V284.903C95.1975 283.799 94.302 282.903 93.1976 282.903ZM93.001 285.257H79.8107V295.03L81.2758 293.467H93.001V285.257ZM99.6028 290.722H100.324C100.738 290.722 101.074 291.058 101.074 291.472V300.078V300.913C101.074 301.327 100.738 301.662 100.324 301.662H99.6028H86.4158C86.0017 301.662 85.6656 301.327 85.6656 300.913V300.078C85.6656 299.664 86.0017 299.328 86.4158 299.328H98.8526V291.472C98.8526 291.058 99.1884 290.722 99.6028 290.722Z" fill="white" fill-opacity="0.75"/>
<g filter="url(#filter5_d_0_3412)">
<path fill-rule="evenodd" clip-rule="evenodd" d="M286.282 279.388C302.462 279.388 315.58 292.515 315.58 308.708C315.58 324.901 302.462 338.028 286.282 338.028C270.101 338.028 256.983 324.901 256.983 308.708C256.983 292.515 270.101 279.388 286.282 279.388Z" fill="#EF5394"/>
<path fill-rule="evenodd" clip-rule="evenodd" d="M286.282 279.388C302.462 279.388 315.58 292.515 315.58 308.708C315.58 324.901 302.462 338.028 286.282 338.028C270.101 338.028 256.983 324.901 256.983 308.708C256.983 292.515 270.101 279.388 286.282 279.388Z" fill="url(#paint5_linear_0_3412)"/>
</g>
<path fill-rule="evenodd" clip-rule="evenodd" d="M277.853 300.509H295.779C296.357 300.509 296.825 300.978 296.825 301.556V301.909C296.825 302.488 296.357 302.956 295.779 302.956H277.853C277.275 302.956 276.806 302.488 276.806 301.909V301.556C276.806 300.978 277.275 300.509 277.853 300.509ZM276.76 317.669C276.956 318.002 277.352 318.149 277.712 318.048C277.933 318.124 278.185 318.108 278.404 317.984L285.631 313.879C286.03 313.652 286.167 313.149 285.937 312.757L285.519 312.046C285.289 311.653 284.778 311.518 284.379 311.745L278.226 315.241L276.842 312.882C276.612 312.489 276.101 312.354 275.702 312.581L274.98 312.992C274.58 313.218 274.444 313.721 274.674 314.113L276.76 317.669ZM295.771 307.063H277.861C277.278 307.063 276.806 307.535 276.806 308.117V308.455C276.806 309.037 277.278 309.509 277.861 309.509H295.771C296.353 309.509 296.825 309.037 296.825 308.455V308.117C296.825 307.535 296.353 307.063 295.771 307.063ZM295.779 313.615H289.522C288.943 313.615 288.475 314.084 288.475 314.663V315.016C288.475 315.594 288.943 316.062 289.522 316.062H295.779C296.357 316.062 296.825 315.594 296.825 315.016V314.663C296.825 314.084 296.357 313.615 295.779 313.615Z" fill="white" fill-opacity="0.75"/>
<g filter="url(#filter6_d_0_3412)">
<path fill-rule="evenodd" clip-rule="evenodd" d="M198.359 302.844C211.31 302.844 221.809 313.345 221.809 326.3C221.809 339.255 211.31 349.756 198.359 349.756C185.408 349.756 174.91 339.255 174.91 326.3C174.91 313.345 185.408 302.844 198.359 302.844Z" fill="#F2528C"/>
<path fill-rule="evenodd" clip-rule="evenodd" d="M198.359 302.844C211.31 302.844 221.809 313.345 221.809 326.3C221.809 339.255 211.31 349.756 198.359 349.756C185.408 349.756 174.91 339.255 174.91 326.3C174.91 313.345 185.408 302.844 198.359 302.844Z" fill="url(#paint6_linear_0_3412)"/>
</g>
<path fill-rule="evenodd" clip-rule="evenodd" d="M201.834 320.937C201.895 320.816 201.98 320.711 202.09 320.628C202.536 320.293 203.214 320.47 203.603 321.024L207.48 326.537C207.869 327.09 207.823 327.811 207.377 328.146C206.93 328.481 206.252 328.304 205.863 327.75L202.763 323.343L198.492 331.526C198.217 332.053 197.648 332.293 197.179 332.1C196.728 332.246 196.227 332.042 195.998 331.591L193.167 326.031L190.758 329.268C190.419 329.725 189.789 329.807 189.352 329.453C188.915 329.099 188.836 328.442 189.175 327.987L192.247 323.857C192.559 323.439 193.114 323.334 193.541 323.593C193.917 323.573 194.289 323.777 194.478 324.147L197.235 329.563L201.545 321.307C201.621 321.16 201.72 321.036 201.834 320.937Z" fill="#EEEEEE" fill-opacity="0.5"/>
<g filter="url(#filter7_d_0_3412)">
<path fill-rule="evenodd" clip-rule="evenodd" d="M150.293 64.7938C163.236 64.7938 173.729 75.2955 173.729 88.2499C173.729 101.205 163.236 111.706 150.293 111.706C137.35 111.706 126.857 101.205 126.857 88.2499C126.857 75.2955 137.35 64.7938 150.293 64.7938Z" fill="#DA4CD4"/>
<path fill-rule="evenodd" clip-rule="evenodd" d="M150.293 64.7938C163.236 64.7938 173.729 75.2955 173.729 88.2499C173.729 101.205 163.236 111.706 150.293 111.706C137.35 111.706 126.857 101.205 126.857 88.2499C126.857 75.2955 137.35 64.7938 150.293 64.7938Z" fill="url(#paint7_linear_0_3412)"/>
</g>
<path fill-rule="evenodd" clip-rule="evenodd" d="M150.296 77.7062L140.918 83.2346V93.2852L150.296 98.8132L159.674 93.2852V83.2346L150.296 77.7062ZM157.48 84.5281L150.296 79.7166L142.794 84.2391V84.3405L150.296 88.7627L157.48 84.5281ZM151.234 96.3004V90.2695L157.799 86.2495V92.2804L151.234 96.3004ZM142.794 92.2804L149.358 96.3004V90.2695L142.794 86.2495V92.2804Z" fill="#EEEEEE" fill-opacity="0.5"/>
<g filter="url(#filter8_d_0_3412)">
<path fill-rule="evenodd" clip-rule="evenodd" d="M300.34 124.616C313.291 124.616 323.79 135.117 323.79 148.072C323.79 161.026 313.291 171.528 300.34 171.528C287.389 171.528 276.89 161.026 276.89 148.072C276.89 135.117 287.389 124.616 300.34 124.616Z" fill="#DB50E0"/>
<path fill-rule="evenodd" clip-rule="evenodd" d="M300.34 124.616C313.291 124.616 323.79 135.117 323.79 148.072C323.79 161.026 313.291 171.528 300.34 171.528C287.389 171.528 276.89 161.026 276.89 148.072C276.89 135.117 287.389 124.616 300.34 124.616Z" fill="url(#paint8_linear_0_3412)"/>
</g>
<path fill-rule="evenodd" clip-rule="evenodd" d="M305.992 143.15C305.992 140.028 303.468 137.497 300.354 137.497C297.241 137.497 294.717 140.028 294.717 143.15C294.717 144.907 295.516 146.477 296.77 147.513C294.024 148.758 292.13 151.393 292.13 154.442C292.13 154.566 292.133 154.688 292.139 154.81C292.133 154.855 292.13 154.902 292.13 154.948C292.13 155.516 292.589 155.975 293.156 155.975C293.718 155.975 294.175 155.523 294.182 154.963H294.404C294.388 154.791 294.379 154.618 294.379 154.442C294.379 151.649 296.536 149.33 299.368 148.881C299.342 148.964 299.328 149.052 299.328 149.144V153.553C299.328 154.036 299.72 154.428 300.203 154.428H300.505C300.989 154.428 301.38 154.036 301.38 153.553V149.144C301.38 149.051 301.366 148.961 301.339 148.877C304.185 149.314 306.357 151.639 306.357 154.442C306.357 154.618 306.349 154.791 306.332 154.963H306.498C306.506 155.523 306.962 155.975 307.524 155.975C308.091 155.975 308.55 155.516 308.55 154.948C308.55 154.902 308.547 154.855 308.541 154.81C308.547 154.688 308.55 154.566 308.55 154.442C308.55 151.4 306.665 148.769 303.929 147.522C305.188 146.485 305.992 144.912 305.992 143.15ZM300.354 139.55C302.334 139.55 303.939 141.162 303.939 143.15C303.939 145.138 302.334 146.75 300.354 146.75C298.374 146.75 296.769 145.138 296.769 143.15C296.769 141.162 298.374 139.55 300.354 139.55Z" fill="#EEEEEE" fill-opacity="0.5"/>
<g filter="url(#filter9_d_0_3412)">
<path fill-rule="evenodd" clip-rule="evenodd" d="M65.8993 160.953C78.8502 160.953 89.349 171.455 89.349 184.41C89.349 197.364 78.8502 207.866 65.8993 207.866C52.9484 207.866 42.4498 197.364 42.4498 184.41C42.4498 171.455 52.9484 160.953 65.8993 160.953Z" fill="#E54FB8"/>
<path fill-rule="evenodd" clip-rule="evenodd" d="M65.8993 160.953C78.8502 160.953 89.349 171.455 89.349 184.41C89.349 197.364 78.8502 207.866 65.8993 207.866C52.9484 207.866 42.4498 197.364 42.4498 184.41C42.4498 171.455 52.9484 160.953 65.8993 160.953Z" fill="url(#paint9_linear_0_3412)"/>
</g>
<path fill-rule="evenodd" clip-rule="evenodd" d="M75.966 179.78L67.0399 175.264C66.4241 174.953 65.4207 174.953 64.7988 175.264L55.7984 179.78C55.1772 180.092 55.1726 180.597 55.7892 180.908L64.7147 185.424C65.3316 185.735 66.3345 185.735 66.9559 185.424L75.9568 180.908C76.5785 180.597 76.5826 180.092 75.966 179.78ZM55.7984 184.431L57.2991 183.678H57.4464L64.1154 187.325H64.224C64.6869 187.543 65.256 187.672 65.8713 187.672C66.4865 187.672 67.0556 187.543 67.5185 187.325H67.6323L74.5662 183.723L75.966 184.431C76.5826 184.743 76.5785 185.248 75.9568 185.56L66.9559 190.075C66.3345 190.387 65.3316 190.387 64.7147 190.075L55.7892 185.56C55.1726 185.248 55.1772 184.743 55.7984 184.431ZM74.5661 188.374L75.966 189.082C76.5826 189.394 76.5785 189.899 75.9568 190.212L66.9559 194.727C66.3345 195.038 65.3316 195.038 64.7147 194.727L55.7892 190.212C55.1726 189.899 55.1772 189.394 55.7984 189.082L57.2646 188.347H57.4781L64.1154 191.977H64.3055C64.753 192.171 65.2916 192.284 65.8713 192.284C66.4509 192.284 66.9896 192.171 67.4371 191.977H67.6323L74.5661 188.374Z" fill="#EEEEEE" fill-opacity="0.5"/>
<g filter="url(#filter10_d_0_3412)">
<path fill-rule="evenodd" clip-rule="evenodd" d="M139.735 315.753C146.21 315.753 151.46 321.004 151.46 327.481C151.46 333.958 146.21 339.21 139.735 339.21C133.259 339.21 128.01 333.958 128.01 327.481C128.01 321.004 133.259 315.753 139.735 315.753Z" fill="#F25289"/>
<path fill-rule="evenodd" clip-rule="evenodd" d="M139.735 315.753C146.21 315.753 151.46 321.004 151.46 327.481C151.46 333.958 146.21 339.21 139.735 339.21C133.259 339.21 128.01 333.958 128.01 327.481C128.01 321.004 133.259 315.753 139.735 315.753Z" fill="url(#paint10_linear_0_3412)"/>
</g>
<g filter="url(#filter11_d_0_3412)">
<path fill-rule="evenodd" clip-rule="evenodd" d="M260.498 24.9407C266.974 24.9407 272.223 30.1914 272.223 36.6688C272.223 43.1462 266.974 48.3968 260.498 48.3968C254.023 48.3968 248.773 43.1462 248.773 36.6688C248.773 30.1914 254.023 24.9407 260.498 24.9407Z" fill="#D44CDE"/>
<path fill-rule="evenodd" clip-rule="evenodd" d="M260.498 24.9407C266.974 24.9407 272.223 30.1914 272.223 36.6688C272.223 43.1462 266.974 48.3968 260.498 48.3968C254.023 48.3968 248.773 43.1462 248.773 36.6688C248.773 30.1914 254.023 24.9407 260.498 24.9407Z" fill="url(#paint11_linear_0_3412)"/>
</g>
<g filter="url(#filter12_d_0_3412)">
<path fill-rule="evenodd" clip-rule="evenodd" d="M295.659 226.625C302.126 226.625 307.369 231.876 307.369 238.353C307.369 244.83 302.126 250.081 295.659 250.081C289.191 250.081 283.948 244.83 283.948 238.353C283.948 231.876 289.191 226.625 295.659 226.625Z" fill="#E952A8"/>
<path fill-rule="evenodd" clip-rule="evenodd" d="M295.659 226.625C302.126 226.625 307.369 231.876 307.369 238.353C307.369 244.83 302.126 250.081 295.659 250.081C289.191 250.081 283.948 244.83 283.948 238.353C283.948 231.876 289.191 226.625 295.659 226.625Z" fill="url(#paint12_linear_0_3412)"/>
</g>
<g filter="url(#filter13_d_0_3412)">
<path fill-rule="evenodd" clip-rule="evenodd" d="M88.1681 219.594C94.6436 219.594 99.893 224.845 99.893 231.322C99.893 237.799 94.6436 243.05 88.1681 243.05C81.6927 243.05 76.4433 237.799 76.4433 231.322C76.4433 224.845 81.6927 219.594 88.1681 219.594Z" fill="#E952AB"/>
<path fill-rule="evenodd" clip-rule="evenodd" d="M88.1681 219.594C94.6436 219.594 99.893 224.845 99.893 231.322C99.893 237.799 94.6436 243.05 88.1681 243.05C81.6927 243.05 76.4433 237.799 76.4433 231.322C76.4433 224.845 81.6927 219.594 88.1681 219.594Z" fill="url(#paint13_linear_0_3412)"/>
</g>
<path fill-rule="evenodd" clip-rule="evenodd" d="M152.641 291.116C155.871 291.116 158.489 293.741 158.489 296.98C158.489 300.218 155.871 302.844 152.641 302.844C149.411 302.844 146.793 300.218 146.793 296.98C146.793 293.741 149.411 291.116 152.641 291.116Z" fill="#EE5397" fill-opacity="0.75"/>
<path fill-rule="evenodd" clip-rule="evenodd" d="M146.778 30.7905C150.016 30.7905 152.641 33.4162 152.641 36.6545C152.641 39.8932 150.016 42.5189 146.778 42.5189C143.541 42.5189 140.916 39.8932 140.916 36.6545C140.916 33.4162 143.541 30.7905 146.778 30.7905Z" fill="#D44CDD" fill-opacity="0.75"/>
<path fill-rule="evenodd" clip-rule="evenodd" d="M44.7976 240.688C48.0352 240.688 50.66 243.313 50.66 246.552C50.66 249.79 48.0352 252.416 44.7976 252.416C41.5597 252.416 38.935 249.79 38.935 246.552C38.935 243.313 41.5597 240.688 44.7976 240.688Z" fill="#EA52A5" fill-opacity="0.75"/>
<path fill-rule="evenodd" clip-rule="evenodd" d="M297.992 194.956C301.23 194.956 303.855 197.582 303.855 200.82C303.855 204.059 301.23 206.684 297.992 206.684C294.755 206.684 292.13 204.059 292.13 200.82C292.13 197.582 294.755 194.956 297.992 194.956Z" fill="#E650B4" fill-opacity="0.75"/>
<path fill-rule="evenodd" clip-rule="evenodd" d="M200.707 85.9154C203.945 85.9154 206.569 88.5412 206.569 91.7799C206.569 95.0182 203.945 97.6439 200.707 97.6439C197.469 97.6439 194.845 95.0182 194.845 91.7799C194.845 88.5412 197.469 85.9154 200.707 85.9154Z" fill="#DB4CD2" fill-opacity="0.75"/>
<path fill-rule="evenodd" clip-rule="evenodd" d="M163.185 357.969C165.126 357.969 166.699 359.543 166.699 361.484C166.699 363.426 165.126 365 163.185 365C161.244 365 159.67 363.426 159.67 361.484C159.67 359.543 161.244 357.969 163.185 357.969Z" fill="#F74E7B" fill-opacity="0.5"/>
<path fill-rule="evenodd" clip-rule="evenodd" d="M328.485 212.563C330.426 212.563 332 214.137 332 216.078C332 218.02 330.426 219.594 328.485 219.594C326.544 219.594 324.971 218.02 324.971 216.078C324.971 214.137 326.544 212.563 328.485 212.563Z" fill="#E751AF" fill-opacity="0.5"/>
<path fill-rule="evenodd" clip-rule="evenodd" d="M22.5147 149.225C24.4558 149.225 26.0293 150.805 26.0293 152.755C26.0293 154.704 24.4558 156.285 22.5147 156.285C20.5736 156.285 19.0001 154.704 19.0001 152.755C19.0001 150.805 20.5736 149.225 22.5147 149.225Z" fill="#E14EC2" fill-opacity="0.5"/>
<path fill-rule="evenodd" clip-rule="evenodd" d="M224.143 288.781C226.084 288.781 227.657 290.355 227.657 292.297C227.657 294.238 226.084 295.813 224.143 295.813C222.201 295.813 220.628 294.238 220.628 292.297C220.628 290.355 222.201 288.781 224.143 288.781Z" fill="#EE5398" fill-opacity="0.5"/>
<path fill-rule="evenodd" clip-rule="evenodd" d="M101.06 148.072C103.009 148.072 104.589 149.646 104.589 151.588C104.589 153.529 103.009 155.103 101.06 155.103C99.1111 155.103 97.5311 153.529 97.5311 151.588C97.5311 149.646 99.1111 148.072 101.06 148.072Z" fill="#E14EC3" fill-opacity="0.5"/>
<path fill-rule="evenodd" clip-rule="evenodd" d="M316.761 92.9469C318.702 92.9469 320.275 94.5208 320.275 96.4626C320.275 98.4041 318.702 99.9779 316.761 99.9779C314.819 99.9779 313.246 98.4041 313.246 96.4626C313.246 94.5208 314.819 92.9469 316.761 92.9469Z" fill="#DC4CD0" fill-opacity="0.5"/>
<defs>
<filter id="filter0_d_0_3412" x="94.5421" y="117.844" width="194.729" height="194.8" filterUnits="userSpaceOnUse" color-interpolation-filters="sRGB">
<feFlood flood-opacity="0" result="BackgroundImageFix"/>
<feColorMatrix in="SourceAlpha" type="matrix" values="0 0 0 0 0 0 0 0 0 0 0 0 0 0 0 0 0 0 127 0" result="hardAlpha"/>
<feOffset dy="15"/>
<feGaussianBlur stdDeviation="10"/>
<feColorMatrix type="matrix" values="0 0 0 0 0 0 0 0 0 0 0 0 0 0 0 0 0 0 0.1 0"/>
<feBlend mode="normal" in2="BackgroundImageFix" result="effect1_dropShadow_0_3412"/>
<feBlend mode="normal" in="SourceGraphic" in2="effect1_dropShadow_0_3412" result="shape"/>
</filter>
<filter id="filter1_d_0_3412" x="0.771362" y="48.6564" width="124.38" height="124.431" filterUnits="userSpaceOnUse" color-interpolation-filters="sRGB">
<feFlood flood-opacity="0" result="BackgroundImageFix"/>
<feColorMatrix in="SourceAlpha" type="matrix" values="0 0 0 0 0 0 0 0 0 0 0 0 0 0 0 0 0 0 127 0" result="hardAlpha"/>
<feOffset dy="15"/>
<feGaussianBlur stdDeviation="10"/>
<feColorMatrix type="matrix" values="0 0 0 0 0 0 0 0 0 0 0 0 0 0 0 0 0 0 0.1 0"/>
<feBlend mode="normal" in2="BackgroundImageFix" result="effect1_dropShadow_0_3412"/>
<feBlend mode="normal" in="SourceGraphic" in2="effect1_dropShadow_0_3412" result="shape"/>
</filter>
<filter id="filter2_d_0_3412" x="153.729" y="-0.00012207" width="98.6241" height="98.6407" filterUnits="userSpaceOnUse" color-interpolation-filters="sRGB">
<feFlood flood-opacity="0" result="BackgroundImageFix"/>
<feColorMatrix in="SourceAlpha" type="matrix" values="0 0 0 0 0 0 0 0 0 0 0 0 0 0 0 0 0 0 127 0" result="hardAlpha"/>
<feOffset dy="15"/>
<feGaussianBlur stdDeviation="10"/>
<feColorMatrix type="matrix" values="0 0 0 0 0 0 0 0 0 0 0 0 0 0 0 0 0 0 0.1 0"/>
<feBlend mode="normal" in2="BackgroundImageFix" result="effect1_dropShadow_0_3412"/>
<feBlend mode="normal" in="SourceGraphic" in2="effect1_dropShadow_0_3412" result="shape"/>
</filter>
<filter id="filter3_d_0_3412" x="210.019" y="59.7938" width="98.5962" height="98.6406" filterUnits="userSpaceOnUse" color-interpolation-filters="sRGB">
<feFlood flood-opacity="0" result="BackgroundImageFix"/>
<feColorMatrix in="SourceAlpha" type="matrix" values="0 0 0 0 0 0 0 0 0 0 0 0 0 0 0 0 0 0 127 0" result="hardAlpha"/>
<feOffset dy="15"/>
<feGaussianBlur stdDeviation="10"/>
<feColorMatrix type="matrix" values="0 0 0 0 0 0 0 0 0 0 0 0 0 0 0 0 0 0 0.1 0"/>
<feBlend mode="normal" in2="BackgroundImageFix" result="effect1_dropShadow_0_3412"/>
<feBlend mode="normal" in="SourceGraphic" in2="effect1_dropShadow_0_3412" result="shape"/>
</filter>
<filter id="filter4_d_0_3412" x="40.0228" y="257.991" width="98.6245" height="98.6125" filterUnits="userSpaceOnUse" color-interpolation-filters="sRGB">
<feFlood flood-opacity="0" result="BackgroundImageFix"/>
<feColorMatrix in="SourceAlpha" type="matrix" values="0 0 0 0 0 0 0 0 0 0 0 0 0 0 0 0 0 0 127 0" result="hardAlpha"/>
<feOffset dy="15"/>
<feGaussianBlur stdDeviation="10"/>
<feColorMatrix type="matrix" values="0 0 0 0 0 0 0 0 0 0 0 0 0 0 0 0 0 0 0.1 0"/>
<feBlend mode="normal" in2="BackgroundImageFix" result="effect1_dropShadow_0_3412"/>
<feBlend mode="normal" in="SourceGraphic" in2="effect1_dropShadow_0_3412" result="shape"/>
</filter>
<filter id="filter5_d_0_3412" x="236.983" y="274.388" width="98.5961" height="98.6406" filterUnits="userSpaceOnUse" color-interpolation-filters="sRGB">
<feFlood flood-opacity="0" result="BackgroundImageFix"/>
<feColorMatrix in="SourceAlpha" type="matrix" values="0 0 0 0 0 0 0 0 0 0 0 0 0 0 0 0 0 0 127 0" result="hardAlpha"/>
<feOffset dy="15"/>
<feGaussianBlur stdDeviation="10"/>
<feColorMatrix type="matrix" values="0 0 0 0 0 0 0 0 0 0 0 0 0 0 0 0 0 0 0.1 0"/>
<feBlend mode="normal" in2="BackgroundImageFix" result="effect1_dropShadow_0_3412"/>
<feBlend mode="normal" in="SourceGraphic" in2="effect1_dropShadow_0_3412" result="shape"/>
</filter>
<filter id="filter6_d_0_3412" x="154.909" y="297.844" width="86.8995" height="86.9126" filterUnits="userSpaceOnUse" color-interpolation-filters="sRGB">
<feFlood flood-opacity="0" result="BackgroundImageFix"/>
<feColorMatrix in="SourceAlpha" type="matrix" values="0 0 0 0 0 0 0 0 0 0 0 0 0 0 0 0 0 0 127 0" result="hardAlpha"/>
<feOffset dy="15"/>
<feGaussianBlur stdDeviation="10"/>
<feColorMatrix type="matrix" values="0 0 0 0 0 0 0 0 0 0 0 0 0 0 0 0 0 0 0.1 0"/>
<feBlend mode="normal" in2="BackgroundImageFix" result="effect1_dropShadow_0_3412"/>
<feBlend mode="normal" in="SourceGraphic" in2="effect1_dropShadow_0_3412" result="shape"/>
</filter>
<filter id="filter7_d_0_3412" x="106.857" y="59.7937" width="86.8712" height="86.9127" filterUnits="userSpaceOnUse" color-interpolation-filters="sRGB">
<feFlood flood-opacity="0" result="BackgroundImageFix"/>
<feColorMatrix in="SourceAlpha" type="matrix" values="0 0 0 0 0 0 0 0 0 0 0 0 0 0 0 0 0 0 127 0" result="hardAlpha"/>
<feOffset dy="15"/>
<feGaussianBlur stdDeviation="10"/>
<feColorMatrix type="matrix" values="0 0 0 0 0 0 0 0 0 0 0 0 0 0 0 0 0 0 0.1 0"/>
<feBlend mode="normal" in2="BackgroundImageFix" result="effect1_dropShadow_0_3412"/>
<feBlend mode="normal" in="SourceGraphic" in2="effect1_dropShadow_0_3412" result="shape"/>
</filter>
<filter id="filter8_d_0_3412" x="256.89" y="119.616" width="86.8994" height="86.9122" filterUnits="userSpaceOnUse" color-interpolation-filters="sRGB">
<feFlood flood-opacity="0" result="BackgroundImageFix"/>
<feColorMatrix in="SourceAlpha" type="matrix" values="0 0 0 0 0 0 0 0 0 0 0 0 0 0 0 0 0 0 127 0" result="hardAlpha"/>
<feOffset dy="15"/>
<feGaussianBlur stdDeviation="10"/>
<feColorMatrix type="matrix" values="0 0 0 0 0 0 0 0 0 0 0 0 0 0 0 0 0 0 0.1 0"/>
<feBlend mode="normal" in2="BackgroundImageFix" result="effect1_dropShadow_0_3412"/>
<feBlend mode="normal" in="SourceGraphic" in2="effect1_dropShadow_0_3412" result="shape"/>
</filter>
<filter id="filter9_d_0_3412" x="22.4498" y="155.953" width="86.8992" height="86.9126" filterUnits="userSpaceOnUse" color-interpolation-filters="sRGB">
<feFlood flood-opacity="0" result="BackgroundImageFix"/>
<feColorMatrix in="SourceAlpha" type="matrix" values="0 0 0 0 0 0 0 0 0 0 0 0 0 0 0 0 0 0 127 0" result="hardAlpha"/>
<feOffset dy="15"/>
<feGaussianBlur stdDeviation="10"/>
<feColorMatrix type="matrix" values="0 0 0 0 0 0 0 0 0 0 0 0 0 0 0 0 0 0 0.1 0"/>
<feBlend mode="normal" in2="BackgroundImageFix" result="effect1_dropShadow_0_3412"/>
<feBlend mode="normal" in="SourceGraphic" in2="effect1_dropShadow_0_3412" result="shape"/>
</filter>
<filter id="filter10_d_0_3412" x="108.01" y="310.753" width="63.4497" height="63.4564" filterUnits="userSpaceOnUse" color-interpolation-filters="sRGB">
<feFlood flood-opacity="0" result="BackgroundImageFix"/>
<feColorMatrix in="SourceAlpha" type="matrix" values="0 0 0 0 0 0 0 0 0 0 0 0 0 0 0 0 0 0 127 0" result="hardAlpha"/>
<feOffset dy="15"/>
<feGaussianBlur stdDeviation="10"/>
<feColorMatrix type="matrix" values="0 0 0 0 0 0 0 0 0 0 0 0 0 0 0 0 0 0 0.1 0"/>
<feBlend mode="normal" in2="BackgroundImageFix" result="effect1_dropShadow_0_3412"/>
<feBlend mode="normal" in="SourceGraphic" in2="effect1_dropShadow_0_3412" result="shape"/>
</filter>
<filter id="filter11_d_0_3412" x="228.773" y="19.9407" width="63.4498" height="63.4562" filterUnits="userSpaceOnUse" color-interpolation-filters="sRGB">
<feFlood flood-opacity="0" result="BackgroundImageFix"/>
<feColorMatrix in="SourceAlpha" type="matrix" values="0 0 0 0 0 0 0 0 0 0 0 0 0 0 0 0 0 0 127 0" result="hardAlpha"/>
<feOffset dy="15"/>
<feGaussianBlur stdDeviation="10"/>
<feColorMatrix type="matrix" values="0 0 0 0 0 0 0 0 0 0 0 0 0 0 0 0 0 0 0.1 0"/>
<feBlend mode="normal" in2="BackgroundImageFix" result="effect1_dropShadow_0_3412"/>
<feBlend mode="normal" in="SourceGraphic" in2="effect1_dropShadow_0_3412" result="shape"/>
</filter>
<filter id="filter12_d_0_3412" x="263.948" y="221.625" width="63.4217" height="63.4561" filterUnits="userSpaceOnUse" color-interpolation-filters="sRGB">
<feFlood flood-opacity="0" result="BackgroundImageFix"/>
<feColorMatrix in="SourceAlpha" type="matrix" values="0 0 0 0 0 0 0 0 0 0 0 0 0 0 0 0 0 0 127 0" result="hardAlpha"/>
<feOffset dy="15"/>
<feGaussianBlur stdDeviation="10"/>
<feColorMatrix type="matrix" values="0 0 0 0 0 0 0 0 0 0 0 0 0 0 0 0 0 0 0.1 0"/>
<feBlend mode="normal" in2="BackgroundImageFix" result="effect1_dropShadow_0_3412"/>
<feBlend mode="normal" in="SourceGraphic" in2="effect1_dropShadow_0_3412" result="shape"/>
</filter>
<filter id="filter13_d_0_3412" x="56.4433" y="214.594" width="63.4498" height="63.4561" filterUnits="userSpaceOnUse" color-interpolation-filters="sRGB">
<feFlood flood-opacity="0" result="BackgroundImageFix"/>
<feColorMatrix in="SourceAlpha" type="matrix" values="0 0 0 0 0 0 0 0 0 0 0 0 0 0 0 0 0 0 127 0" result="hardAlpha"/>
<feOffset dy="15"/>
<feGaussianBlur stdDeviation="10"/>
<feColorMatrix type="matrix" values="0 0 0 0 0 0 0 0 0 0 0 0 0 0 0 0 0 0 0.1 0"/>
<feBlend mode="normal" in2="BackgroundImageFix" result="effect1_dropShadow_0_3412"/>
<feBlend mode="normal" in="SourceGraphic" in2="effect1_dropShadow_0_3412" result="shape"/>
</filter>
<linearGradient id="paint0_linear_0_3412" x1="192" y1="358" x2="350" y2="200" gradientUnits="userSpaceOnUse">
<stop stop-color="white" stop-opacity="0.01"/>
<stop offset="1" stop-color="white" stop-opacity="0.25"/>
</linearGradient>
<linearGradient id="paint1_linear_0_3412" x1="63" y1="184" x2="151" y2="96" gradientUnits="userSpaceOnUse">
<stop stop-color="white" stop-opacity="0.01"/>
<stop offset="1" stop-color="white" stop-opacity="0.15"/>
</linearGradient>
<linearGradient id="paint2_linear_0_3412" x1="203" y1="96" x2="265" y2="34" gradientUnits="userSpaceOnUse">
<stop stop-color="white" stop-opacity="0.01"/>
<stop offset="1" stop-color="white" stop-opacity="0.15"/>
</linearGradient>
<linearGradient id="paint3_linear_0_3412" x1="259.008" y1="155.5" x2="320.983" y2="95.5077" gradientUnits="userSpaceOnUse">
<stop stop-color="white" stop-opacity="0.01"/>
<stop offset="1" stop-color="white" stop-opacity="0.15"/>
</linearGradient>
<linearGradient id="paint4_linear_0_3412" x1="89.008" y1="353.5" x2="150.983" y2="293.508" gradientUnits="userSpaceOnUse">
<stop stop-color="white" stop-opacity="0.01"/>
<stop offset="1" stop-color="white" stop-opacity="0.15"/>
</linearGradient>
<linearGradient id="paint5_linear_0_3412" x1="286" y1="371" x2="348" y2="309" gradientUnits="userSpaceOnUse">
<stop stop-color="white" stop-opacity="0.01"/>
<stop offset="1" stop-color="white" stop-opacity="0.15"/>
</linearGradient>
<linearGradient id="paint6_linear_0_3412" x1="198" y1="376" x2="248" y2="326" gradientUnits="userSpaceOnUse">
<stop stop-color="white" stop-opacity="0.01"/>
<stop offset="1" stop-color="white" stop-opacity="0.15"/>
</linearGradient>
<linearGradient id="paint7_linear_0_3412" x1="150" y1="138" x2="200" y2="88" gradientUnits="userSpaceOnUse">
<stop stop-color="white" stop-opacity="0.01"/>
<stop offset="1" stop-color="white" stop-opacity="0.15"/>
</linearGradient>
<linearGradient id="paint8_linear_0_3412" x1="300" y1="198" x2="350" y2="148" gradientUnits="userSpaceOnUse">
<stop stop-color="white" stop-opacity="0.01"/>
<stop offset="1" stop-color="white" stop-opacity="0.15"/>
</linearGradient>
<linearGradient id="paint9_linear_0_3412" x1="66" y1="234" x2="116" y2="184" gradientUnits="userSpaceOnUse">
<stop stop-color="white" stop-opacity="0.01"/>
<stop offset="1" stop-color="white" stop-opacity="0.15"/>
</linearGradient>
<linearGradient id="paint10_linear_0_3412" x1="139.519" y1="354" x2="166.461" y2="329.016" gradientUnits="userSpaceOnUse">
<stop stop-color="white" stop-opacity="0.01"/>
<stop offset="1" stop-color="white" stop-opacity="0.15"/>
</linearGradient>
<linearGradient id="paint11_linear_0_3412" x1="260.5" y1="63.5" x2="287.5" y2="36.5" gradientUnits="userSpaceOnUse">
<stop stop-color="white" stop-opacity="0.01"/>
<stop offset="1" stop-color="white" stop-opacity="0.15"/>
</linearGradient>
<linearGradient id="paint12_linear_0_3412" x1="295.5" y1="265.5" x2="322.5" y2="238.5" gradientUnits="userSpaceOnUse">
<stop stop-color="white" stop-opacity="0.01"/>
<stop offset="1" stop-color="white" stop-opacity="0.15"/>
</linearGradient>
<linearGradient id="paint13_linear_0_3412" x1="87.5185" y1="258" x2="114.461" y2="233.016" gradientUnits="userSpaceOnUse">
<stop stop-color="white" stop-opacity="0.01"/>
<stop offset="1" stop-color="white" stop-opacity="0.15"/>
</linearGradient>
</defs>
</svg>
