<svg width="20" height="17" viewBox="0 0 20 17" fill="none" xmlns="http://www.w3.org/2000/svg">
<path fill-rule="evenodd" clip-rule="evenodd" d="M11.9517 0.132781C11.4579 0.416365 11.2883 1.04399 11.5735 1.53445L13.5873 4.9997H6.75241L9.07955 1.45662C9.38553 0.990421 9.2039 0.395155 8.67417 0.126229C8.1442 -0.142697 7.46651 0.0164201 7.1608 0.482242L4.19409 4.9997H1.92218C1.81829 4.9997 1.71812 5.01554 1.62394 5.04492C1.38671 4.97232 1.10249 4.97734 0.821128 5.07715C0.230008 5.28673 -0.124256 5.83577 0.0296321 6.3035L3.37442 16.4569C3.5089 16.8664 3.98871 17.0771 4.50239 16.9824C4.56283 16.9938 4.62519 16.9998 4.68894 16.9998H15.5996C15.6276 16.9998 15.6553 16.9986 15.6827 16.9964C16.1504 17.0506 16.5719 16.8414 16.696 16.4569L19.9709 6.3035C20.1215 5.83577 19.7749 5.28673 19.1961 5.07715C18.9688 4.99479 18.7395 4.97697 18.5358 5.01404C18.4806 5.00461 18.4239 4.9997 18.3661 4.9997H15.973L13.3625 0.508429C13.0774 0.017596 12.4454 -0.150404 11.9517 0.132781ZM4.69671 6.99972H2.64959L5.28489 14.9998H14.8255L17.4059 6.99972H16.3686C16.2913 7.09433 16.1956 7.17675 16.0831 7.24128C15.637 7.49695 15.0788 7.38487 14.7645 6.99972H4.89473C4.82917 7.00489 4.7629 7.00495 4.69671 6.99972Z" fill="#AAAAAA"/>
</svg>
