<svg width="20" height="22" viewBox="0 0 20 22" fill="none" xmlns="http://www.w3.org/2000/svg">
<path fill-rule="evenodd" clip-rule="evenodd" d="M6.00035 1.00005C6.00035 0.44755 5.55231 -0.000149965 4.99999 -0.000149965C4.44767 -0.000149965 3.9999 0.44755 3.9999 1.00005V16.9998C3.9999 17.5522 4.44767 18 4.99999 18C5.55231 18 6.00035 17.5522 6.00035 16.9998V1.00005ZM9.99996 5.00007C9.99996 4.44757 9.55194 3.99988 9.00038 3.99988C8.4478 3.99988 8.00027 4.44757 8.00027 5.00007V16.9998C8.00027 17.5522 8.4478 18 9.00038 18C9.55194 18 9.99996 17.5522 9.99996 16.9998V5.00007ZM13 7.9999C13.5523 7.9999 14.0003 8.4476 14.0003 9.0001V16.9998C14.0003 17.5522 13.5523 18 13 18C12.4477 18 11.9999 17.5522 11.9999 16.9998V9.0001C11.9999 8.4476 12.4477 7.9999 13 7.9999ZM20.0004 20.5C20.0004 20.2238 19.7764 20 19.5 20H1.99996V4.49958C1.99996 4.22333 1.77594 3.99988 1.50003 3.99988H0.499945C0.223784 3.99988 0.000270009 4.22333 0.000270009 4.49958V20.5V21.4999C0.000270009 21.7761 0.223784 22 0.499945 22H1.50003H19.5C19.7764 22 20.0004 21.7761 20.0004 21.4999V20.5ZM18 6.9997C18 6.44797 17.5524 5.99988 17.0004 5.99988C16.4478 5.99988 16 6.44797 16 6.9997V16.9998C16 17.5522 16.4478 18 17.0004 18C17.5524 18 18 17.5522 18 16.9998V6.9997Z" fill="#AAAAAA"/>
</svg>
