<svg width="18" height="16" viewBox="0 0 18 16" fill="none" xmlns="http://www.w3.org/2000/svg">
<path fill-rule="evenodd" clip-rule="evenodd" d="M2.9999 8.40425e-05H13.0001L11.0002 2.0001H2.9999C2.44783 2.0001 2.00006 2.4478 2.00006 2.99992V13C2.00006 13.5525 2.44783 14.0002 2.9999 14.0002H13.0001C13.5522 14.0002 13.9999 13.5525 13.9999 13V11L16.0001 8.99995V13C16.0001 14.6571 14.6571 16.0002 13.0001 16.0002H2.9999C1.34319 16.0002 -0.000133991 14.6571 -0.000133991 13V2.99992C-0.000133991 1.34319 1.34319 8.40425e-05 2.9999 8.40425e-05ZM5.26702 6.35498C5.67111 5.95429 6.32619 5.95429 6.73028 6.35498L8.92509 8.53209L16.2401 1.27538C16.6442 0.874692 17.299 0.874692 17.7031 1.27538C18.1069 1.67607 18.1069 2.32566 17.7031 2.72636L10.3882 9.9832C10.2549 10.1153 10.0943 10.2039 9.92447 10.2489C9.87915 10.4175 9.78986 10.5768 9.65659 10.7091C9.25223 11.1098 8.59716 11.1098 8.19306 10.7091L5.26702 7.80635C4.86343 7.40564 4.86343 6.75567 5.26702 6.35498Z" fill="#888888"/>
</svg>
