<svg width="31" height="22" viewBox="0 0 31 22" fill="none" xmlns="http://www.w3.org/2000/svg">
<path fill-rule="evenodd" clip-rule="evenodd" d="M27.7502 0.870582C30.8592 2.66562 31.9245 6.64136 30.1293 9.75023C28.3344 12.8591 24.3589 13.924 21.2502 12.129C18.1413 10.3343 17.0757 6.35895 18.8708 3.25008C20.666 0.14084 24.6412 -0.924094 27.7502 0.870582ZM29 15.9999H20.0001C19.4476 15.9999 19.0001 16.4476 19.0001 16.9997C19.0001 17.5522 19.4476 17.9999 20.0001 17.9999H29C29.5523 17.9999 30.0001 17.5522 30.0001 16.9997C30.0001 16.4476 29.5523 15.9999 29 15.9999ZM29 20H20.0001C19.4476 20 19.0001 20.448 19.0001 20.9998C19.0001 21.5526 19.4476 22.0003 20.0001 22.0003H29C29.5523 22.0003 30.0001 21.5526 30.0001 20.9998C30.0001 20.448 29.5523 20 29 20ZM29.143 6.5952C29.1693 5.25572 28.614 3.9382 27.5793 3.02373L26.1248 5.5429L28.6069 6.20791C28.8361 6.26924 29.0223 6.41124 29.143 6.5952ZM28.9504 7.82716C28.8487 8.16721 28.7061 8.50091 28.5209 8.82169C27.2387 11.0425 24.3992 11.803 22.1786 10.5208C19.9578 9.23855 19.1971 6.39901 20.4793 4.17861C21.6022 2.23324 23.9206 1.40808 25.971 2.09526L24.1601 5.23161C24.0968 5.34125 24.0584 5.45841 24.0431 5.57656C23.9702 5.67099 23.9144 5.78111 23.8816 5.90353C23.749 6.39862 24.0434 6.90835 24.5385 7.04051L28.1263 8.00217C28.4243 8.08193 28.7274 8.00725 28.9504 7.82716ZM13 1.99984C13.5523 1.99984 14.0001 2.44753 14.0001 3.00003V20.9998C14.0001 21.5526 13.5523 22.0003 13 22.0003C12.4476 22.0003 11.9996 21.5526 11.9996 20.9998V3.00003C11.9996 2.44753 12.4476 1.99984 13 1.99984ZM9.99995 6.99967C9.99995 6.44795 9.55217 6.00025 9.00011 6.00025C8.44755 6.00025 8 6.44795 8 6.99967V20.9998C8 21.5526 8.44755 22.0003 9.00011 22.0003C9.55217 22.0003 9.99995 21.5526 9.99995 20.9998V6.99967ZM4.99998 11.9999C5.55231 11.9999 6.00009 12.4476 6.00009 13.0001V20.9998C6.00009 21.5526 5.55231 22.0003 4.99998 22.0003C4.44792 22.0003 3.9999 21.5526 3.9999 20.9998V13.0001C3.9999 12.4476 4.44792 11.9999 4.99998 11.9999ZM1.99996 11.0001C1.99996 10.4476 1.55218 10.0003 0.999608 10.0003C0.447516 10.0003 7.98702e-06 10.4476 7.98702e-06 11.0001V20.9998C7.98702e-06 21.5526 0.447516 22.0003 0.999608 22.0003C1.55218 22.0003 1.99996 21.5526 1.99996 20.9998V11.0001Z" fill="#888888"/>
</svg>
