<svg width="18" height="15" viewBox="0 0 18 15" fill="none" xmlns="http://www.w3.org/2000/svg">
<path fill-rule="evenodd" clip-rule="evenodd" d="M11.1276 0.267878L17.4403 6.57614C17.4646 6.60043 17.4872 6.62577 17.5082 6.65201C17.7969 6.77174 18 7.05633 18 7.38832V7.6114C18 7.93882 17.8021 8.22051 17.5192 8.34295C17.4953 8.37422 17.469 8.40425 17.4403 8.43282L11.1276 14.7345C10.7792 15.0824 10.214 15.0824 9.86517 14.7345C9.51682 14.3866 9.51682 13.8222 9.86517 13.4743L14.9399 8.40816H0.796739C0.356663 8.40816 0.000103951 8.051 0.000103951 7.6114V7.38832C0.000103951 6.94832 0.356663 6.59155 0.796739 6.59155H14.9304L9.86517 1.52969C9.51682 1.18138 9.51682 0.616167 9.86517 0.267878C10.214 -0.0800309 10.7792 -0.0800309 11.1276 0.267878Z" fill="#AAAAAA"/>
</svg>
