<svg width="20" height="22" viewBox="0 0 20 22" fill="none" xmlns="http://www.w3.org/2000/svg">
<path fill-rule="evenodd" clip-rule="evenodd" d="M9.99988 20C6.41259 20 3.32188 17.8971 1.87607 14.8603L4.74867 12.9932C5.5543 15.1135 7.59688 16.6249 9.99988 16.6249C11.3131 16.6249 12.5185 16.1722 13.4754 15.4178L16.1461 17.5716C14.5374 19.0769 12.3769 20 9.99988 20Z" fill="#34A853"/>
<path fill-rule="evenodd" clip-rule="evenodd" d="M9.99988 1.99992C12.4856 1.99992 14.7316 3.01129 16.3588 4.64143L13.9715 7.02865C12.9539 6.01034 11.5533 5.37501 9.99988 5.37501C7.67113 5.37501 5.67274 6.79054 4.81829 8.80789L1.94209 6.99166C3.41667 4.03306 6.47014 1.99992 9.99988 1.99992Z" fill="#EA4335"/>
<path fill-rule="evenodd" clip-rule="evenodd" d="M1.88994 14.9069C1.31963 13.7253 1.00005 12.3999 1.00005 11.0002C1.00005 9.52837 1.3556 8.14058 1.98165 6.91422L4.78439 8.89959C4.52261 9.5488 4.37489 10.2566 4.37489 11.0002C4.37489 11.706 4.51079 12.3787 4.74817 13.0013L1.88994 14.9069Z" fill="#FBBC05"/>
<path fill-rule="evenodd" clip-rule="evenodd" d="M15.3667 12.6877H9.9999V9.31223H18.8397C18.9435 9.85933 19 10.423 19 11.0002C19 12.2223 18.7552 13.3866 18.3141 14.4496L17.6449 15.748C17.1976 16.467 16.6527 17.1185 16.0274 17.6829L13.3154 15.5419C14.2736 14.8407 15.0029 13.8459 15.3667 12.6877Z" fill="#4285F4"/>
</svg>
