<svg width="19" height="25" viewBox="0 0 19 25" fill="none" xmlns="http://www.w3.org/2000/svg">
<path fill-rule="evenodd" clip-rule="evenodd" d="M13.4133 1.2987L18.6381 6.58234C18.6382 6.58252 18.6384 6.58269 18.6386 6.58287C19.0506 6.99937 19.0506 7.67515 18.6386 8.09203L13.4133 13.3762C13.0015 13.7931 12.3328 13.7931 11.9205 13.3762C11.5082 12.9589 11.5082 12.2832 11.9205 11.8663L15.3421 8.40642H9.50003C6.95365 8.40642 4.7091 9.67112 3.38698 11.5935H3.14654C3.14683 11.6039 3.14698 11.6143 3.14698 11.6247C3.14698 12.2119 2.68174 12.6873 2.10783 12.6873C1.53394 12.6873 1.0687 12.2119 1.0687 11.6247C1.0687 11.6143 1.06885 11.6039 1.06914 11.5935H0.910092C2.43299 8.41632 5.70684 6.21877 9.50003 6.21877C9.87251 6.21877 10.24 6.23997 10.6013 6.2812H15.3548L11.9205 2.80824C11.5082 2.39136 11.5082 1.71558 11.9205 1.2987C12.3328 0.881819 13.0015 0.881819 13.4133 1.2987ZM9.50003 24.9999C9.12751 24.9999 8.76 24.9787 8.39867 24.9374H10.6013C10.24 24.9787 9.87252 24.9999 9.50003 24.9999Z" fill="#888888"/>
</svg>
