<svg width="20" height="16" viewBox="0 0 20 16" fill="currentColor" xmlns="http://www.w3.org/2000/svg">
<path fill-rule="evenodd" clip-rule="evenodd" d="M12.9999 -0.000200033H2.00008C0.895672 -0.000200033 0.000135899 0.8952 0.000135899 2.0002V8.96884C0.000135899 9.02379 0.002352 9.07822 0.0066998 9.13205L-0.00192797 9.13104V12.7835L0.0620883 12.8511C0.0221841 12.9497 0.000135899 13.0581 0.000135899 13.1719C0.000135899 13.6292 0.356464 13.9999 0.796768 13.9999C0.901947 13.9999 1.00239 13.9787 1.09434 13.9402L1.15233 14.0014L4.02609 10.9688H12.9999C14.1042 10.9688 15 10.0734 15 8.96884V2.0002C15 0.8952 14.1042 -0.000200033 12.9999 -0.000200033ZM13.1257 1.99866H1.87343V10.3339L3.12374 9.00044H13.1257V1.99866ZM18.8751 6.65636H19.2499C19.6642 6.65636 20 6.99194 20 7.40612V14.75V15.2497C20 15.6639 19.6642 16.0003 19.2499 16.0003H18.8751H7.62482C7.21096 16.0003 6.87494 15.6639 6.87494 15.2497V14.75C6.87494 14.3358 7.21096 13.9999 7.62482 13.9999H18.1249V7.40612C18.1249 6.99194 18.4609 6.65636 18.8751 6.65636Z" fill="currentColor"/>
</svg>
