<svg width="17" height="3" viewBox="0 0 17 3" fill="none" xmlns="http://www.w3.org/2000/svg">
<path fill-rule="evenodd" clip-rule="evenodd" d="M2.99988 1.50006C2.99988 0.671697 2.32834 -0.000239968 1.50012 -0.000239968C0.6711 -0.000239968 -0.000159979 0.671697 -0.000159979 1.50006C-0.000159979 2.32842 0.6711 3.00036 1.50012 3.00036C2.32834 3.00036 2.99988 2.32842 2.99988 1.50006ZM8.50002 -0.000239968C9.3285 -0.000239968 10 0.671697 10 1.50006C10 2.32842 9.3285 3.00036 8.50002 3.00036C7.67152 3.00036 7 2.32842 7 1.50006C7 0.671697 7.67152 -0.000239968 8.50002 -0.000239968ZM15.5002 -0.000239968C16.3284 -0.000239968 16.9999 0.671697 16.9999 1.50006C16.9999 2.32842 16.3284 3.00036 15.5002 3.00036C14.6714 3.00036 13.9999 2.32842 13.9999 1.50006C13.9999 0.671697 14.6714 -0.000239968 15.5002 -0.000239968Z" fill="#888888"/>
</svg>
