<svg width="18" height="18" viewBox="0 0 18 18" fill="none" xmlns="http://www.w3.org/2000/svg">
<path fill-rule="evenodd" clip-rule="evenodd" d="M6.87864 2.63656C7.26914 2.2455 7.26914 1.61248 6.87864 1.2218C6.48816 0.83188 5.85466 0.83188 5.46418 1.2218L1.2218 5.46494C0.83132 5.85484 0.83132 6.48864 1.2218 6.87892C1.61228 7.2696 2.24552 7.2696 2.63576 6.87892L6.87864 2.63656ZM15.3639 2.63656C15.7544 3.02646 15.7544 3.66026 15.3639 4.05016L4.05022 15.3644C3.65974 15.7547 3.02624 15.7547 2.63576 15.3644C2.24552 14.9738 2.24552 14.3407 2.63576 13.9501L13.95 2.63656C14.3405 2.2455 14.9734 2.2455 15.3639 2.63656ZM16.7784 11.1217C17.1689 11.512 17.1689 12.1454 16.7784 12.5361L12.5355 16.7784C12.145 17.1687 11.512 17.1687 11.1215 16.7784C10.7305 16.3874 10.7305 15.7547 11.1215 15.3644L15.3639 11.1217C15.7544 10.7306 16.3879 10.7306 16.7784 11.1217Z" fill="#666666"/>
</svg>
