<svg width="30" height="30" viewBox="0 0 16 16" fill="none" xmlns="http://www.w3.org/2000/svg">
<path fill-rule="evenodd" clip-rule="evenodd" d="M6.37431 2.41816L4.9937 0.593999C4.31191 0.871413 3.67073 1.24165 3.08963 1.69346L3.97881 3.80139C3.55646 4.20517 3.19197 4.67554 2.90354 5.20198L0.637305 4.88838C0.49643 5.22287 0.376679 5.57091 0.28008 5.93134C0.183563 6.29151 0.113257 6.65254 0.0679955 7.0124L2.18747 7.87403C2.17398 8.47442 2.25448 9.06426 2.41846 9.62534L0.594231 11.0061C0.871567 11.6878 1.2417 12.3289 1.69341 12.91L3.8013 12.0205C4.20523 12.4431 4.67583 12.8078 5.20257 13.0964L4.88909 15.3629C5.20123 15.4943 5.52518 15.6074 5.85998 15.7004L6.00392 15.7389C6.33999 15.8257 6.67668 15.8897 7.01235 15.9319L7.8742 13.8124C8.47462 13.8259 9.06449 13.7454 9.6256 13.5814L11.0063 15.4056C11.3314 15.2733 11.6472 15.12 11.9517 14.9467L12.0378 14.897C12.341 14.7196 12.6325 14.5222 12.9103 14.3062L12.021 12.1984C12.4435 11.7946 12.8081 11.3241 13.0966 10.7975L15.363 11.1108C15.4931 10.8018 15.6052 10.4812 15.6977 10.15L15.7418 9.9853C15.8272 9.65269 15.8903 9.31948 15.9321 8.98728L13.8126 8.12514C13.826 7.52477 13.7455 6.93495 13.5815 6.37391L15.4058 4.99321C15.2725 4.66543 15.1177 4.34704 14.9426 4.0402L14.8999 3.96614C14.7217 3.66145 14.5236 3.36846 14.3065 3.08933L12.1985 3.97872C11.7946 3.55615 11.324 3.19149 10.7973 2.90294L11.1107 0.636507C10.7927 0.502604 10.4624 0.387795 10.1209 0.293821L10.0131 0.26494C9.67141 0.17596 9.32906 0.110506 8.98776 0.0675788L8.12571 2.18707C7.52529 2.1736 6.93542 2.25414 6.37431 2.41816ZM8.94004 4.49076C10.8781 5.00974 12.0284 7.00204 11.509 8.94002C10.9898 10.878 8.99758 12.0281 7.05982 11.5083C5.12206 10.9894 3.97168 8.99744 4.49086 7.05946C5.01004 5.12148 7.00228 3.9714 8.94004 4.49076Z" fill="#fff"/>
</svg>
