<svg width="24" height="23" viewBox="0 0 24 23" fill="none" xmlns="http://www.w3.org/2000/svg">
<path fill-rule="evenodd" clip-rule="evenodd" d="M-0.000218034 2.2829L2.24788 -0.00491595L6.21437 3.22493L6.611 5.24342L10.0493 8.60736L8.66079 10.0198L5.3548 6.52142L3.3058 6.18508L-0.000218034 2.2829ZM17.255 6.9252L16.9906 3.56127L19.971 0.528767C19.5664 0.423578 19.1425 0.367657 18.7057 0.367657C15.8916 0.367657 13.6104 2.68976 13.6104 5.55357C13.6104 6.18637 13.7218 6.7927 13.9257 7.35337L1.58665 19.91L1.6524 21.5922L4.62726 23.0051L16.9803 10.4343C17.5191 10.6316 18.1 10.7391 18.7057 10.7391C21.5202 10.7391 23.8017 8.41741 23.8017 5.55357C23.8017 5.08797 23.7414 4.63668 23.6283 4.20736L20.6273 7.26154L17.3875 7.06004L17.255 6.9252ZM17.0567 13.1822L14.4124 18.1609L19.1062 22.9376L22.4122 21.1884L22.8751 19.1029L17.0567 13.1822Z" fill="#888888"/>
</svg>
