<svg width="17" height="17" viewBox="0 0 17 17" fill="none" xmlns="http://www.w3.org/2000/svg">
<path fill-rule="evenodd" clip-rule="evenodd" d="M1.30424 14.1553L13.2483 2.20836H2.03358C1.4815 2.20836 1.03398 1.76066 1.03398 1.20816V1.03402C1.03398 0.48152 1.4815 0.0338199 2.03358 0.0338199H15.6392C15.9979 -0.0565407 16.3938 0.0384991 16.6743 0.31894C16.9484 0.593194 17.0456 0.977054 16.9659 1.32884V14.9663C16.9659 15.5184 16.5184 15.9661 15.9663 15.9661H15.7916C15.2396 15.9661 14.7918 15.5184 14.7918 14.9663V3.7392L2.84126 15.6926C2.41686 16.1171 1.72864 16.1171 1.30424 15.6926C0.8796 15.268 0.8796 14.5795 1.30424 14.1553Z" fill="#666666"/>
</svg>
