<svg width="26" height="24" viewBox="0 0 26 24" fill="none" xmlns="http://www.w3.org/2000/svg">
<path fill-rule="evenodd" clip-rule="evenodd" d="M16.7095 0.0297201L0.756247 4.76217C0.20574 4.92591 -0.121554 5.55275 0.0261719 6.16228C0.0443814 6.23751 0.068979 6.30898 0.0991464 6.37614C0.0347743 6.57242 -4.39882e-05 6.78209 -4.39882e-05 6.9999V21.9998C-4.39882e-05 23.1044 0.895505 24.0002 1.99988 24.0002H22C23.1049 24.0002 24 23.1044 24 21.9998V18.8293C25.1649 18.4174 25.9996 17.3062 25.9996 16.0001V13.0003C25.9996 11.6939 25.1649 10.5827 24 10.1708V6.9999C24 5.89527 23.1049 4.99989 22 4.99989H7.93211L17.2438 2.23738C17.7944 2.07403 18.1214 1.44716 17.9734 0.838024C17.826 0.22852 17.2603 -0.13366 16.7095 0.0297201ZM22 6.9999V10.0001H17C15.3433 10.0001 14 11.3432 14 13.0003V16.0001C14 17.6569 15.3433 19 17 19H22V21.9998H1.99988V6.9999H22ZM23.0001 11.9997H17C16.448 11.9997 16 12.4474 16 13.0003V16.0001C16 16.5522 16.448 17 17 17H23.0001C23.5525 17 24 16.5522 24 16.0001V13.0003C24 12.4474 23.5525 11.9997 23.0001 11.9997ZM18.5001 13.0003C19.3285 13.0003 20.0001 13.6719 20.0001 14.4998C20.0001 15.3286 19.3285 16.0001 18.5001 16.0001C17.6716 16.0001 17 15.3286 17 14.4998C17 13.6719 17.6716 13.0003 18.5001 13.0003Z" fill="#888888"/>
</svg>
